HIERARCHY
ROOT Hips
{
	OFFSET 0.000000 0.000000 0.000000
	CHANNELS 6 Xposition Yposition Zposition Xrotation Yrotation Zrotation
	JOINT LeftUpLeg_virtual
	{
		OFFSET 0.000000 0.000000 0.000000
		CHANNELS 3 Xrotation Yrotation Zrotation
		JOINT LeftUpLeg
		{
			OFFSET 13.026900 -6.336304 -1.092800
			CHANNELS 3 Xrotation Yrotation Zrotation
			JOINT LeftLeg
			{
				OFFSET 0.524474 -46.096886 9.782700
				CHANNELS 3 Xrotation Yrotation Zrotation
				JOINT LeftFoot
				{
					OFFSET -0.524474 -53.427422 -12.948200
					CHANNELS 3 Xrotation Yrotation Zrotation
					JOINT LeftToeBase
					{
						OFFSET 0.192200 -14.009700 16.364100
						CHANNELS 3 Xrotation Yrotation Zrotation
						JOINT LeftToe_End
						{
							OFFSET -1.784700 -0.561700 9.474800
							CHANNELS 3 Xrotation Yrotation Zrotation
							End Site
							{
								OFFSET 0 0 0
							}
						}
					}
				}
			}
		}
	}
	JOINT RightUpLeg_virtual
	{
		OFFSET 0.000000 0.000000 0.000000
		CHANNELS 3 Xrotation Yrotation Zrotation
		JOINT RightUpLeg
		{
			OFFSET -12.883000 -6.336304 -1.092800
			CHANNELS 3 Xrotation Yrotation Zrotation
			JOINT RightLeg
			{
				OFFSET -0.524587 -46.096825 9.782800
				CHANNELS 3 Xrotation Yrotation Zrotation
				JOINT RightFoot
				{
					OFFSET 0.524587 -53.427383 -12.948300
					CHANNELS 3 Xrotation Yrotation Zrotation
					JOINT RightToeBase
					{
						OFFSET -0.192200 -14.009700 16.364100
						CHANNELS 3 Xrotation Yrotation Zrotation
						JOINT RightToe_End
						{
							OFFSET 1.784700 -0.561700 9.474800
							CHANNELS 3 Xrotation Yrotation Zrotation
							End Site
							{
								OFFSET 0 0 0
							}
						}
					}
				}
			}
		}
	}
	JOINT Spine_virtual
	{
		OFFSET 0.000000 0.000000 0.000000
		CHANNELS 3 Xrotation Yrotation Zrotation
		JOINT Spine
		{
			OFFSET 0.072000 7.257294 -0.789700
			CHANNELS 3 Xrotation Yrotation Zrotation
			JOINT Spine1
			{
				OFFSET 0.000000 12.508769 -0.658067
				CHANNELS 3 Xrotation Yrotation Zrotation
				JOINT Spine1_split
				{
					OFFSET 0.000000 12.508769 -0.658067
					CHANNELS 3 Xrotation Yrotation Zrotation
					JOINT Spine2
					{
						OFFSET 0.000000 12.508769 -0.658067
						CHANNELS 3 Xrotation Yrotation Zrotation
						JOINT Neck_virtual
						{
							OFFSET 0.000000 0.000000 0.000000
							CHANNELS 3 Xrotation Yrotation Zrotation
							JOINT Neck
							{
								OFFSET 0.000000 14.033295 7.520400
								CHANNELS 3 Xrotation Yrotation Zrotation
								JOINT Head
								{
									OFFSET 0.000000 8.198502 5.703100
									CHANNELS 3 Xrotation Yrotation Zrotation
									JOINT HeadTop_End
									{
										OFFSET 0.000000 17.760803 13.332701
										CHANNELS 3 Xrotation Yrotation Zrotation
										End Site
										{
											OFFSET 0 0 0
										}
									}
								}
							}
						}
						JOINT LeftShoulder_virtual
						{
							OFFSET 0.000000 0.000000 0.000000
							CHANNELS 3 Xrotation Yrotation Zrotation
							JOINT LeftShoulder
							{
								OFFSET 6.292450 5.785301 -0.669000
								CHANNELS 3 Xrotation Yrotation Zrotation
								JOINT LeftShoulder_split
								{
									OFFSET 6.292450 5.785301 -0.669000
									CHANNELS 3 Xrotation Yrotation Zrotation
									JOINT LeftArm
									{
										OFFSET 13.907140 -6.093903 1.965100
										CHANNELS 3 Xrotation Yrotation Zrotation
										JOINT LeftForeArm
										{
											OFFSET 34.140198 0.000000 0.000000
											CHANNELS 3 Xrotation Yrotation Zrotation
											JOINT LeftHand
											{
												OFFSET 40.960209 0.000000 0.000000
												CHANNELS 3 Xrotation Yrotation Zrotation
												End Site
												{
													OFFSET 0 0 0
												}
											}
										}
									}
								}
							}
						}
						JOINT RightShoulder_virtual
						{
							OFFSET 0.000000 0.000000 0.000000
							CHANNELS 3 Xrotation Yrotation Zrotation
							JOINT RightShoulder
							{
								OFFSET -6.292450 5.785301 -0.669000
								CHANNELS 3 Xrotation Yrotation Zrotation
								JOINT RightShoulder_split
								{
									OFFSET -6.292450 5.785301 -0.669000
									CHANNELS 3 Xrotation Yrotation Zrotation
									JOINT RightArm
									{
										OFFSET -13.907140 -6.093903 1.965100
										CHANNELS 3 Xrotation Yrotation Zrotation
										JOINT RightForeArm
										{
											OFFSET -34.140198 0.000000 0.000000
											CHANNELS 3 Xrotation Yrotation Zrotation
											JOINT RightHand
											{
												OFFSET -40.960209 0.000000 0.000000
												CHANNELS 3 Xrotation Yrotation Zrotation
												End Site
												{
													OFFSET 0 0 0
												}
											}
										}
									}
								}
							}
						}
					}
				}
			}
		}
	}
}
MOTION
Frames: 11
Frame Time: 0.03333333
-4.165521 174.924286 -2.840887 0.000000 0.000000 0.000000 6.521748 3.168766 4.164234 -52.118537 12.923948 7.283349 39.894322 7.584304 -2.506869 36.501993 6.932078 3.402003 -9.013393 0.670606 2.097334 0.000000 0.000000 0.000000 7.442903 4.388297 3.272017 -9.643528 0.555123 -5.323309 25.065580 -7.296572 4.065214 21.136247 -14.295120 14.699590 -1.473182 2.875715 0.310560 0.000000 0.000000 0.000000 7.553919 1.113719 4.289021 -10.197995 2.427772 0.709614 -3.569412 0.859383 -0.191967 2.663318 -5.284413 2.293579 0.000000 0.000000 0.000000 -1.258220 -0.177039 0.382056 -21.082224 -0.380115 -2.805631 -2.337618 -0.958331 5.449352 0.000000 0.000000 0.000000 -6.376212 0.422238 -0.389971 14.809903 3.631739 29.136450 9.897601 10.343846 -0.021439 -56.760914 -36.935115 8.526652 -36.072083 -23.051509 6.183756 0.000000 0.000000 0.000000 -6.231501 0.255949 0.695640 4.505933 -8.544200 -32.755743 -4.469151 2.782432 -0.286916 -69.720891 33.895408 11.851941 -27.257217 21.011262 0.077707 0.000000 0.000000 0.000000 
-2.881744 175.979309 -5.496607 0.000000 0.000000 0.000000 6.037805 0.801804 4.562389 -51.235206 10.628424 5.770994 42.018887 6.803833 -2.248852 35.381073 6.378067 2.525063 -7.952762 0.550112 1.909660 0.000000 0.000000 0.000000 7.368421 1.976223 3.612402 -10.826305 -1.619267 -5.873699 29.597535 -6.239243 4.427877 23.686440 -13.145570 14.776774 0.253132 2.775074 0.350053 0.000000 0.000000 0.000000 7.421504 -0.569617 4.768853 -10.333403 2.174287 0.705290 -3.695213 1.145994 0.294392 1.982097 -3.729485 1.221012 0.000000 0.000000 0.000000 -0.294379 0.226558 0.544835 -21.019356 -0.787843 -1.947648 -3.916355 -1.635760 5.310023 0.000000 0.000000 0.000000 -6.018672 0.724054 0.099205 14.698478 3.849368 29.368082 9.351489 8.824137 0.128413 -59.314462 -39.418640 5.011275 -34.910931 -23.651840 7.933119 0.000000 0.000000 0.000000 -5.711633 0.520925 0.887183 4.424365 -8.437468 -33.147427 -4.686076 2.836957 -0.228337 -70.122888 33.455551 11.645142 -27.309306 21.821430 0.025262 0.000000 0.000000 0.000000 
-0.930879 177.656769 -9.379827 0.000000 0.000000 0.000000 5.218372 -3.657569 4.571272 -51.446491 7.922482 3.903443 47.027468 4.415636 -1.540191 32.293278 4.094752 1.047896 -6.622504 0.322543 1.386945 0.000000 0.000000 0.000000 7.144989 -2.625536 3.908221 -10.979626 -3.220754 -6.683832 32.413243 -5.461550 4.356009 26.416399 -11.059295 14.713858 -0.372152 2.621019 0.616315 0.000000 0.000000 0.000000 7.101933 -4.437223 5.021503 -9.473336 2.496222 0.862003 -3.835244 2.261498 0.860573 1.651666 -1.793020 0.062285 0.000000 0.000000 0.000000 0.448765 1.513770 0.720362 -20.573553 -1.118380 -1.142626 -7.108259 -1.865617 5.001664 0.000000 0.000000 0.000000 -5.936630 1.911371 0.570491 14.989844 4.716334 29.501312 8.763351 7.354214 -0.149354 -65.506145 -41.318458 -1.209976 -33.344427 -26.376541 10.891674 0.000000 0.000000 0.000000 -5.366422 1.657586 1.226801 5.022844 -7.853545 -33.689618 -4.637726 2.588384 -0.182269 -71.540371 31.771397 12.045611 -27.568909 23.182120 -0.172035 0.000000 0.000000 0.000000 
0.793677 179.630402 -13.431013 0.000000 0.000000 0.000000 4.475585 -9.158598 4.173405 -52.724856 5.534340 2.146800 52.795774 1.702459 -0.657369 27.458732 1.348897 -0.322751 -5.926186 -0.051805 0.801572 0.000000 0.000000 0.000000 6.887683 -8.893028 3.988375 -9.740059 -4.390058 -7.517182 32.365541 -5.256417 3.727284 27.525924 -9.276548 13.097444 -1.532801 2.475301 1.092429 0.000000 0.000000 0.000000 6.595240 -10.558439 4.714153 -7.476194 3.382431 1.143301 -3.848279 4.090170 1.466464 1.821151 0.025851 -0.724261 0.000000 0.000000 0.000000 0.855802 3.553241 0.910144 -19.803304 -1.434280 -0.393441 -11.251564 -1.524545 4.662605 0.000000 0.000000 0.000000 -5.897508 3.852352 0.960310 15.588754 6.263601 29.651767 7.417924 6.349811 -0.310799 -72.568096 -41.262634 -7.394046 -31.596592 -29.441974 14.951129 0.000000 0.000000 0.000000 -5.069437 3.610204 1.686773 6.082150 -6.914871 -34.407071 -4.597876 2.256352 -0.204131 -73.513900 29.768755 12.726992 -27.775564 24.518091 -0.662940 0.000000 0.000000 0.000000 
2.013332 181.634277 -17.317553 0.000000 0.000000 0.000000 4.105739 -15.614231 3.447669 -53.888468 3.950369 0.773509 56.802691 0.001946 0.032762 21.369722 0.089545 -0.526318 -5.988322 -0.518943 0.328637 0.000000 0.000000 0.000000 6.873039 -16.738692 3.821329 -7.746988 -5.196442 -8.520156 29.827733 -5.318801 2.776318 27.187616 -8.113859 9.545191 -0.759210 2.367202 1.778897 0.000000 0.000000 0.000000 6.024589 -18.371363 3.996847 -4.745252 4.736433 1.477318 -3.657847 6.412338 2.082616 2.370073 0.781044 -0.463308 0.000000 0.000000 0.000000 1.021577 6.101337 1.125390 -18.695382 -1.795030 0.394355 -15.056611 -0.531386 4.503344 0.000000 0.000000 0.000000 -5.586743 6.304820 1.245162 16.372986 8.489579 29.759906 5.555500 5.510155 -0.612833 -77.786620 -39.880139 -11.085635 -30.429449 -31.611137 19.352972 0.000000 0.000000 0.000000 -4.758531 6.186736 2.232345 7.358702 -5.767705 -35.292332 -4.653022 1.911828 -0.560051 -75.493275 28.466832 13.357942 -27.863975 25.665995 -1.452047 0.000000 0.000000 0.000000 
2.560802 183.800507 -21.157400 0.000000 0.000000 0.000000 4.152686 -23.748919 2.646094 -53.792852 3.124446 0.118433 57.608261 -0.031882 0.133977 15.222263 1.269188 1.005985 -6.157075 -0.954680 -0.066064 0.000000 0.000000 0.000000 6.649757 -25.928370 3.387215 -6.392417 -5.944818 -9.791648 26.770262 -5.053934 1.954264 27.881992 -7.240361 5.612194 1.740598 2.274707 2.609372 0.000000 0.000000 0.000000 5.574470 -26.774249 3.021221 -1.880296 6.312901 1.763607 -3.235317 8.962713 2.638049 3.013795 -0.170626 -0.199117 0.000000 0.000000 0.000000 1.145063 8.848464 1.322421 -17.256143 -2.248700 1.273640 -17.394322 0.946494 4.670528 0.000000 0.000000 0.000000 -4.903822 8.979081 1.354328 17.258761 10.972783 29.701013 3.730221 4.747148 -0.600300 -79.615513 -37.524072 -10.688357 -30.135112 -32.155007 23.439865 0.000000 0.000000 0.000000 -4.205880 9.076996 2.758041 8.646110 -4.590209 -36.011763 -4.873251 1.616997 -1.470495 -77.297715 28.244415 13.696788 -27.805014 26.728115 -2.542254 0.000000 0.000000 0.000000 
2.568885 185.698532 -24.553980 0.000000 0.000000 0.000000 4.534189 -33.985314 2.168345 -52.036349 2.614852 0.239795 55.152070 1.212814 -0.228702 10.547324 4.345166 3.763329 -6.026541 -1.300362 -0.464761 0.000000 0.000000 0.000000 6.347556 -35.863660 2.678625 -6.535630 -6.473565 -11.053803 24.162802 -4.049470 1.192574 30.588818 -6.149420 3.190450 2.813000 2.073750 3.369453 0.000000 0.000000 0.000000 5.360909 -35.714141 2.060417 0.511440 7.897834 1.977289 -2.598627 11.505251 3.037223 3.095315 -1.683632 0.220708 0.000000 0.000000 0.000000 1.412842 11.542430 1.444950 -15.421742 -2.841991 2.203511 -17.458766 2.517989 5.080062 0.000000 0.000000 0.000000 -3.826157 11.618745 1.321331 18.176704 13.408973 29.663153 2.362044 3.981830 0.037276 -78.833702 -34.484686 -6.881409 -30.722553 -31.915886 26.654520 0.000000 0.000000 0.000000 -3.384623 11.960506 3.111982 9.686659 -3.528897 -36.411598 -4.919090 1.299563 -2.469166 -78.918758 28.799534 14.056709 -27.509970 28.109350 -3.974065 0.000000 0.000000 0.000000 
2.274414 186.284058 -27.585135 0.000000 0.000000 0.000000 5.044639 -44.916816 2.088426 -48.825215 2.060222 1.091223 50.571219 2.625814 -0.475447 8.711951 7.718147 6.026793 -6.068094 -1.566005 -0.713795 0.000000 0.000000 0.000000 6.323336 -45.998589 2.196892 -8.075193 -6.074593 -11.879998 21.892250 -1.967505 0.263267 34.055791 -4.806440 2.691172 0.912575 1.599207 3.840101 0.000000 0.000000 0.000000 5.329191 -44.792524 1.416664 2.029489 9.340946 2.084206 -1.793032 13.851033 3.211744 2.455458 -3.053387 0.519815 0.000000 0.000000 0.000000 1.894226 13.962586 1.447946 -13.261751 -3.535075 3.091729 -14.787588 4.150090 5.514727 0.000000 0.000000 0.000000 -2.524669 14.007728 1.181516 19.044657 15.485147 29.484755 1.209569 3.454493 1.481967 -77.849089 -31.648515 -2.795128 -31.240309 -32.519678 28.881093 0.000000 0.000000 0.000000 -2.419552 14.548551 3.185715 10.348305 -2.672707 -36.284632 -4.471597 0.760974 -3.177328 -80.824279 29.369492 14.986956 -26.964747 29.916331 -5.823307 0.000000 0.000000 0.000000 
1.759490 184.824402 -30.188528 0.000000 0.000000 0.000000 5.599463 -54.671693 2.412598 -44.669287 1.429110 2.451248 45.012415 3.223051 -0.350924 10.387479 9.766030 6.126853 -6.404115 -1.778835 -0.663459 0.000000 0.000000 0.000000 6.677599 -55.882005 2.438507 -10.867971 -4.679500 -12.404939 20.326266 0.448050 -0.738392 37.102257 -3.972866 3.135175 -1.447949 1.068486 3.939263 0.000000 0.000000 0.000000 5.468436 -53.494212 1.282770 2.650878 10.529495 2.063837 -0.906916 15.876681 3.121574 1.308144 -3.584821 0.414781 0.000000 0.000000 0.000000 2.548285 15.939474 1.271333 -11.021115 -4.302592 3.845183 -9.750469 5.744324 5.671480 0.000000 0.000000 0.000000 -1.219910 16.045690 0.892560 19.700356 17.083918 28.607826 0.322683 2.854438 3.048184 -78.240398 -29.473830 -1.088980 -30.667717 -35.685160 30.195706 0.000000 0.000000 0.000000 -1.280002 16.660734 2.923620 10.598619 -1.963659 -35.501776 -3.410008 0.218702 -3.311325 -83.894715 29.175860 17.244110 -26.166011 32.381906 -8.231392 0.000000 0.000000 0.000000 
1.050213 181.047318 -32.683258 0.000000 0.000000 0.000000 6.523269 -62.737951 3.543644 -40.162352 0.743599 3.736765 38.931812 2.588457 0.107908 15.511426 9.560667 3.522255 -6.962597 -1.966872 -0.269090 0.000000 0.000000 0.000000 7.880638 -64.477628 4.066077 -15.008629 -2.512793 -13.026285 19.695025 2.631554 -1.645193 39.475809 -3.942809 3.662142 -1.849680 0.775224 3.693271 0.000000 0.000000 0.000000 5.761445 -61.079110 1.714829 2.756423 11.488034 1.952164 0.051126 17.529406 2.755350 0.385308 -3.592817 1.031469 0.000000 0.000000 0.000000 3.277302 17.490122 0.894293 -8.887467 -5.023129 4.321212 -3.205753 6.992326 5.293413 0.000000 0.000000 0.000000 0.085715 17.692644 0.520835 19.978566 18.344522 26.781706 -0.090256 1.496126 4.112719 -80.803945 -29.171011 -3.221313 -28.671181 -41.849518 30.692524 0.000000 0.000000 0.000000 -0.161302 18.274046 2.357800 10.511820 -1.241195 -34.292700 -2.070649 0.212442 -2.779396 -88.626288 27.692773 21.060625 -25.118198 35.727903 -11.171005 0.000000 0.000000 0.000000 
0.203980 174.734161 -35.273247 0.000000 0.000000 0.000000 7.637352 -69.083156 5.366222 -35.755699 0.224247 4.750966 33.042543 1.531761 0.514557 22.003799 7.278248 -0.416831 -7.224209 -2.085538 0.321026 0.000000 0.000000 0.000000 10.243159 -70.973343 7.352546 -20.852969 0.164330 -14.168456 21.394505 4.966429 -2.341110 41.895206 -3.721064 5.000053 -1.161416 0.803933 3.101069 0.000000 0.000000 0.000000 5.907639 -67.151066 2.385002 2.749905 12.160867 1.688446 1.166241 18.775946 2.125991 0.190086 -3.387969 2.111441 0.000000 0.000000 0.000000 3.930579 18.639250 0.365381 -7.100816 -5.650563 4.404877 3.715747 7.715689 4.446502 0.000000 0.000000 0.000000 1.349961 18.925701 0.058793 19.732225 19.064762 24.226377 0.119927 -0.286324 4.646634 -85.783112 -30.982182 -9.232808 -25.589717 -48.977821 30.295581 0.000000 0.000000 0.000000 0.917358 19.435995 1.598962 10.285490 -0.368221 -32.783959 -1.101092 0.983544 -1.546368 -94.474063 24.771824 25.514993 -23.809066 39.399161 -14.646203 0.000000 0.000000 0.000000 
